<svg width="173" height="40" viewBox="0 0 173 40" fill="none" xmlns="http://www.w3.org/2000/svg">
<path d="M31.5698 17.7907C30.7845 22.4106 35.3307 32.1185 30.0346 33.9614C24.7385 35.8042 22.3904 38.959 20.8479 32.3859C20.1276 29.3163 19.8058 23.576 20.8479 20.9302C24.0116 20.6395 25.7383 18.1556 27.6445 17.1475C32.0349 14.8256 32.3256 17.1475 31.5698 17.7907Z" fill="#EC9630"/>
<path d="M16.0466 14.593C15.4652 9.36046 7.38377 18.7209 11.1047 25.1744L11.4535 33.3721L31.8024 34.9419L31.8589 34.7126C34.4869 24.0543 37.1198 13.3756 30.814 18.3721C22.8752 24.6625 16.6116 19.678 16.0466 14.593Z" fill="#EFBC3A"/>
<path d="M32.9651 25.2222C31.7182 19.8203 31.3235 28.2062 23.6628 25.1295C15.5814 19.8837 11.2754 15.5449 10.4965 25.2222C10.4965 32.6744 14.4768 36.5333 23.0196 36.5333C37.093 34.4767 33.721 30.9883 32.9651 25.2222Z" fill="#EC9630"/>
<path fill-rule="evenodd" clip-rule="evenodd" d="M14.2751 0C11.961 0 9.8227 1.23455 8.66566 3.23859L0.867778 16.7449C-0.28926 18.749 -0.289259 21.2181 0.867779 23.2221L8.66566 36.7284C9.8227 38.7325 11.961 39.967 14.2751 39.967H29.8708C32.1849 39.967 34.3232 38.7325 35.4803 36.7284L43.2781 23.2221C44.4352 21.2181 44.4352 18.749 43.2781 16.7449L35.4803 3.23859C34.3232 1.23455 32.1849 0 29.8708 0H14.2751ZM31.5116 31.0465V8.7209H26.3581V17.2259H17.828V8.7209H12.6744V31.0465H17.828V22.1871H26.3581V31.0465H31.5116Z" fill="white"/>
<path d="M74.4401 10.1478V29.6898H69.9423V21.9351H62.4978V29.6898H58V10.1478H62.4978V17.5924H69.9423V10.1478H74.4401Z" fill="white"/>
<path d="M77.2439 22.5554C77.2439 21.5008 77.43 20.5289 77.8023 19.6396C78.1952 18.7298 78.7225 17.9439 79.3842 17.2822C80.046 16.5998 80.8111 16.0725 81.6796 15.7002C82.5688 15.3073 83.5201 15.1109 84.5334 15.1109C85.5467 15.1109 86.4876 15.3073 87.3561 15.7002C88.2453 16.0725 89.0208 16.5998 89.6825 17.2822C90.3443 17.9439 90.8613 18.7298 91.2335 19.6396C91.6264 20.5289 91.8228 21.5008 91.8228 22.5554C91.8228 23.6101 91.6264 24.5923 91.2335 25.5022C90.8613 26.3915 90.3443 27.1773 89.6825 27.8597C89.0208 28.5214 88.2453 29.0487 87.3561 29.4417C86.4876 29.8139 85.5467 30 84.5334 30C83.5201 30 82.5688 29.8139 81.6796 29.4417C80.8111 29.0487 80.046 28.5214 79.3842 27.8597C78.7225 27.1773 78.1952 26.3915 77.8023 25.5022C77.43 24.5923 77.2439 23.6101 77.2439 22.5554ZM87.6353 22.5554C87.6353 21.4594 87.3354 20.5909 86.7357 19.9498C86.136 19.3088 85.4019 18.9882 84.5334 18.9882C83.6648 18.9882 82.9307 19.3088 82.331 19.9498C81.7313 20.5909 81.4315 21.4594 81.4315 22.5554C81.4315 23.6514 81.7313 24.52 82.331 25.161C82.9307 25.8021 83.6648 26.1226 84.5334 26.1226C85.4019 26.1226 86.136 25.8021 86.7357 25.161C87.3354 24.52 87.6353 23.6514 87.6353 22.5554Z" fill="white"/>
<path d="M95.5536 19.2984H93.3823V15.7312H94.4679C95.6053 15.7312 96.174 15.1626 96.174 14.0252V12.009H99.7412V15.4211H102.688V19.2984H99.7412V23.9513C99.7412 24.5717 99.917 25.068 100.269 25.4402C100.62 25.7918 101.065 25.9675 101.602 25.9675C101.768 25.9675 101.913 25.9675 102.037 25.9675C102.161 25.9468 102.274 25.9262 102.378 25.9055C102.481 25.8848 102.585 25.8538 102.688 25.8124V29.5347C102.523 29.5968 102.336 29.6484 102.13 29.6898C101.716 29.7932 101.23 29.8449 100.672 29.8449C99.0381 29.8449 97.7766 29.4003 96.8874 28.5111C95.9982 27.6012 95.5536 26.2881 95.5536 24.5717V19.2984Z" fill="white"/>
<path d="M107.974 14.9527C107.974 14.2863 108.11 13.6552 108.383 13.0595C108.666 12.4638 109.07 11.9387 109.595 11.4843C110.12 11.0299 110.756 10.6715 111.503 10.4089C112.25 10.1363 113.088 10 114.017 10C114.825 10 115.577 10.1464 116.274 10.4392C116.981 10.722 117.597 11.1107 118.122 11.6055C118.657 12.1002 119.076 12.6758 119.379 13.3321C119.692 13.9784 119.869 14.6751 119.909 15.4223H118.364C118.283 14.2611 117.849 13.3018 117.062 12.5445C116.274 11.7771 115.259 11.3934 114.017 11.3934C113.31 11.3934 112.679 11.4944 112.124 11.6964C111.569 11.8882 111.099 12.1507 110.715 12.4839C110.332 12.8071 110.034 13.1857 109.822 13.6199C109.62 14.0541 109.519 14.4984 109.519 14.9527C109.519 15.8413 109.781 16.533 110.306 17.0277C110.831 17.5124 111.493 17.9113 112.291 18.2243C113.088 18.5272 113.947 18.7998 114.865 19.0422C115.784 19.2744 116.643 19.5975 117.44 20.0115C118.238 20.4255 118.899 20.9708 119.424 21.6473C119.959 22.3137 120.227 23.2376 120.227 24.419C120.227 25.2066 120.086 25.9336 119.803 26.6C119.52 27.2563 119.111 27.8218 118.576 28.2964C118.041 28.771 117.39 29.1496 116.622 29.4323C115.855 29.705 114.987 29.8413 114.017 29.8413C113.048 29.8413 112.179 29.705 111.412 29.4323C110.645 29.1496 109.988 28.7609 109.443 28.2661C108.898 27.7713 108.474 27.1806 108.171 26.494C107.868 25.8074 107.696 25.0652 107.656 24.2675H109.216C109.377 25.5095 109.867 26.5192 110.685 27.2967C111.503 28.0641 112.614 28.4478 114.017 28.4478C115.502 28.4478 116.648 28.0742 117.455 27.327C118.263 26.5697 118.667 25.6004 118.667 24.419C118.667 23.49 118.404 22.763 117.879 22.238C117.354 21.7028 116.693 21.2737 115.895 20.9506C115.098 20.6174 114.239 20.3346 113.32 20.1024C112.402 19.8601 111.543 19.542 110.746 19.1482C109.948 18.7544 109.287 18.2394 108.762 17.6033C108.236 16.9571 107.974 16.0735 107.974 14.9527Z" fill="white"/>
<path d="M135.273 29.6898H133.41L126.594 22.556V29.6898H125.186V10.1515H126.594V22.556L132.789 16.0433H134.652L128.442 22.556L135.273 29.6898Z" fill="white"/>
<path d="M140.535 29.6898H139.141V16.0433H140.535V29.6898ZM138.823 11.6964C138.823 11.3833 138.924 11.1259 139.126 10.9239C139.338 10.7119 139.601 10.6058 139.914 10.6058C140.227 10.6058 140.484 10.7119 140.686 10.9239C140.888 11.1259 140.989 11.3833 140.989 11.6964C140.989 12.0094 140.888 12.2719 140.686 12.4839C140.484 12.6859 140.227 12.7869 139.914 12.7869C139.601 12.7869 139.338 12.6859 139.126 12.4839C138.924 12.2719 138.823 12.0094 138.823 11.6964Z" fill="white"/>
<path d="M152.627 15.8918C153.395 15.8918 154.112 16.0332 154.778 16.3159C155.455 16.5885 156.03 16.9773 156.505 17.4821C156.989 17.987 157.368 18.5928 157.641 19.2996C157.923 20.0065 158.065 20.784 158.065 21.6321V29.6898H156.671V21.6321C156.671 21.0162 156.56 20.4457 156.338 19.9206C156.126 19.3855 155.828 18.921 155.445 18.5272C155.061 18.1334 154.617 17.8305 154.112 17.6184C153.607 17.3963 153.062 17.2852 152.476 17.2852C151.86 17.2852 151.284 17.3963 150.749 17.6184C150.224 17.8305 149.765 18.1334 149.371 18.5272C148.987 18.921 148.684 19.3804 148.462 19.9055C148.25 20.4305 148.144 21.0061 148.144 21.6321V29.6898H146.736V16.0433H147.675L148.144 18.0577H148.296C148.548 17.6639 148.876 17.3004 149.28 16.9672C149.634 16.6945 150.083 16.4472 150.628 16.225C151.173 16.0029 151.84 15.8918 152.627 15.8918Z" fill="white"/>
<path d="M172.641 25.8124C172.641 26.3476 172.525 26.8626 172.293 27.3573C172.071 27.842 171.758 28.2711 171.354 28.6447C170.95 29.0082 170.46 29.3011 169.885 29.5232C169.319 29.7352 168.688 29.8413 167.992 29.8413C167.244 29.8413 166.573 29.7352 165.977 29.5232C165.391 29.3011 164.887 28.9981 164.462 28.6144C164.038 28.2307 163.7 27.7865 163.448 27.2816C163.205 26.7767 163.064 26.2365 163.024 25.661H164.417C164.579 26.5293 164.937 27.2109 165.492 27.7057C166.058 28.2005 166.891 28.4478 167.992 28.4478C169.001 28.4478 169.794 28.1853 170.369 27.6602C170.955 27.1352 171.248 26.5192 171.248 25.8124C171.248 25.1965 171.051 24.7219 170.657 24.3887C170.263 24.0555 169.774 23.8031 169.188 23.6314C168.612 23.4497 167.976 23.2931 167.28 23.1619C166.593 23.0306 165.957 22.8388 165.371 22.5863C164.796 22.3339 164.311 21.9805 163.917 21.5261C163.534 21.0717 163.342 20.4305 163.342 19.6026C163.342 19.1078 163.443 18.6332 163.645 18.1788C163.857 17.7245 164.149 17.3307 164.523 16.9975C164.907 16.6541 165.376 16.3866 165.932 16.1947C166.497 15.9928 167.133 15.8918 167.84 15.8918C168.506 15.8918 169.112 16.0029 169.658 16.225C170.203 16.4371 170.682 16.7198 171.096 17.0732C171.51 17.4165 171.834 17.8254 172.066 18.3C172.308 18.7746 172.449 19.2643 172.49 19.7692H171.096C170.935 19.0624 170.581 18.4717 170.036 17.9971C169.501 17.5225 168.769 17.2852 167.84 17.2852C166.83 17.2852 166.058 17.5175 165.523 17.9819C164.998 18.4464 164.735 18.9866 164.735 19.6026C164.735 20.1983 164.932 20.6476 165.326 20.9506C165.72 21.2535 166.204 21.4908 166.78 21.6624C167.355 21.824 167.992 21.9754 168.688 22.1168C169.385 22.2481 170.021 22.445 170.597 22.7075C171.172 22.9599 171.657 23.3234 172.051 23.798C172.444 24.2726 172.641 24.9441 172.641 25.8124Z" fill="white"/>
</svg>
